<mxfile host="app.diagrams.net" modified="2024-05-16T21:40:57.200Z" agent="Mozilla/5.0 (Macintosh; Intel Mac OS X 10_15_7) AppleWebKit/605.1.15 (KHTML, like Gecko) Version/17.4.1 Safari/605.1.15" version="24.4.3" etag="2luZzLXP7BXOSwmFmUTZ" type="github">
  <diagram name="Page-1" id="66U-YrVXCCfPf5cJQVHg">
    <mxGraphModel>
      <root>
        <mxCell id="0" />
        <mxCell id="1" parent="0" />
      </root>
    </mxGraphModel>
  </diagram>
</mxfile>
